<svg xmlns="http://www.w3.org/2000/svg" width="67" height="40" stroke="#000" stroke-linecap="round" stroke-linejoin="round" fill="#fff" fill-rule="evenodd"><path d="M65.252 37.3098c-2.3372.5943-3.7829.0261-5.08-1.9215l-9.2241-12.7621-1.3333-1.7669-10.7722 14.5711c-1.2308 1.7529-2.5219 2.5159-4.8189 1.8955l13.7941-18.5166L34.9752 2.0837c2.2087-.4297 3.7347-.2109 5.09 1.7669l9.5675 12.9207 9.6378-12.8504c1.2349-1.7529 2.5621-2.4195 4.7788-1.773l-4.9796 6.6019-6.7464 8.7845c-.8032 1.0039-.6927 1.6906.0462 2.6604L65.252 37.3098zM1.0161 18.5l1.1284-5.5497C5.2165 1.9672 17.8059-2.5967 26.488 4.1899c5.0739 3.9917 6.3348 9.6378 6.0838 15.9626H3.9717c-.4297 11.3847 7.7644 18.2556 18.2114 14.7499 3.6643-1.2309 5.8228-4.1001 6.903-7.6902.5482-1.7991 1.4558-2.0802 3.1464-1.5661-.8634 4.4896-2.811 8.2403-6.9272 10.5875-6.1501 3.5138-14.9285 2.3773-19.5466-2.5058-2.7508-2.8332-3.8873-6.4232-4.3973-10.2623-.0803-.6345-.2409-1.2388-.3614-1.8472q.0161-1.5581.0161-3.1163zm3.0078-.763h25.8453C29.7006 9.5048 24.5744 3.6578 17.569 3.6076 9.8788 3.5474 4.3572 9.2558 4.0239 17.737z" fill-rule="nonzero" stroke-width="2"/></svg>